<?xml version="1.0" encoding="UTF-8" standalone="no"?>
<svg
   width="16"
   height="16"
   version="1.1"
   id="svg4"
   sodipodi:docname="eraser.svg"
   inkscape:version="1.2.2 (b0a8486541, 2022-12-01)"
   xmlns:inkscape="http://www.inkscape.org/namespaces/inkscape"
   xmlns:sodipodi="http://sodipodi.sourceforge.net/DTD/sodipodi-0.dtd"
   xmlns="http://www.w3.org/2000/svg"
   xmlns:svg="http://www.w3.org/2000/svg">
  <defs
     id="defs8" />
  <sodipodi:namedview
     id="namedview6"
     pagecolor="#ffffff"
     bordercolor="#000000"
     borderopacity="0.25"
     inkscape:showpageshadow="2"
     inkscape:pageopacity="0.0"
     inkscape:pagecheckerboard="0"
     inkscape:deskcolor="#d1d1d1"
     showgrid="false"
     inkscape:zoom="35.875"
     inkscape:cx="3.3031359"
     inkscape:cy="8"
     inkscape:window-width="1366"
     inkscape:window-height="742"
     inkscape:window-x="0"
     inkscape:window-y="0"
     inkscape:window-maximized="1"
     inkscape:current-layer="svg4" />
  <path
     style="fill:#eeeeec;fill-opacity:1"
     d="M 11.072,1 C 10.817,1 10.561,1.0971 10.365,1.293 L 6.3281,5.3281 10.672,9.6719 14.707,5.6348 C 15.099,5.243 15.099,4.6124 14.707,4.2207 L 11.779,1.293 C 11.583,1.0971 11.328,1 11.072,1 Z M 5.3281,6.3281 3.293,8.3652 C 2.9012,8.757 2.9012,9.3876 3.293,9.7793 L 6.2207,12.707 C 6.6124,13.099 7.243,13.099 7.6348,12.707 L 9.6719,10.672 Z M 9,14 H 15 V 15 H 8 C 8,15 8,14 9,14 Z M 1,14 H 4 C 5,14 5,15 5,15 H 1 Z"
     id="path2" />
</svg>
